<svg xmlns="http://www.w3.org/2000/svg" viewBox="122.16015625 60.06500244140625 330.6796875 454.86999893188477"> <svg xmlns="http://www.w3.org/2000/svg" xmlns:xlink="http://www.w3.org/1999/xlink" version="1.1" id="Layer_1" x="192.16015625" y="130.06500244140625" viewBox="20.899999618530273 14.899999618530273 58.19999694824219 70.19999694824219" xml:space="preserve" height="230" width="190.6796875" preserveAspectRatio="xMinYMin" enable-background="new 0 0 100 100" style="overflow: visible;"><linearGradient id="SVGID_1_" gradientUnits="userSpaceOnUse" x1="40.0365" y1="69.3322" x2="49.9964" y2="69.3322" style=""><stop offset="0" style="stop-color: #0089FF;"></stop><stop offset="1" style="stop-color: #00FFFF;"></stop></linearGradient><polygon class="st0" points="50,53.5 50,85.1 40,73.1   " style="fill: url(#SVGID_1_);"></polygon><linearGradient id="SVGID_00000099637338527716442400000017540209559287751323_" gradientUnits="userSpaceOnUse" x1="31.7865" y1="39.2072" x2="49.9964" y2="39.2072" style=""><stop offset="0" style="stop-color: #0089FF;"></stop><stop offset="1" style="stop-color: #00FFFF;"></stop></linearGradient><polygon style="fill: url(#SVGID_00000099637338527716442400000017540209559287751323_);" points="50,14.9 50,33.7 31.8,63.5   "></polygon><linearGradient id="SVGID_00000119826608482129612580000003401232445557235639_" gradientUnits="userSpaceOnUse" x1="20.9165" y1="39.2072" x2="49.9964" y2="39.2072" style=""><stop offset="0" style="stop-color: #00FFFF;"></stop><stop offset="1" style="stop-color: #0089FF;"></stop></linearGradient><polygon style="fill: url(#SVGID_00000119826608482129612580000003401232445557235639_);" points="50,14.9 31.8,63.5 20.9,50  "></polygon><linearGradient id="SVGID_00000081630103047780446570000000186850157082229425_" gradientUnits="userSpaceOnUse" x1="49.9964" y1="39.2072" x2="79.0865" y2="39.2072" style=""><stop offset="0" style="stop-color: #00FFFF;"></stop><stop offset="1" style="stop-color: #0089FF;"></stop></linearGradient><polygon style="fill: url(#SVGID_00000081630103047780446570000000186850157082229425_);" points="79.1,50 68.2,63.5 50,14.9  "></polygon><linearGradient id="SVGID_00000031200077892646584550000006602417325346552451_" gradientUnits="userSpaceOnUse" x1="49.9964" y1="69.3322" x2="59.9565" y2="69.3322" style=""><stop offset="0" style="stop-color: #0089FF;"></stop><stop offset="1" style="stop-color: #00FFFF;"></stop></linearGradient><polygon style="fill: url(#SVGID_00000031200077892646584550000006602417325346552451_);" points="60,73.1 50,85.1 50,53.5  "></polygon><linearGradient id="SVGID_00000031200024338344150310000014551939032476777382_" gradientUnits="userSpaceOnUse" x1="49.9964" y1="39.2072" x2="68.2165" y2="39.2072" style=""><stop offset="0" style="stop-color: #0089FF;"></stop><stop offset="1" style="stop-color: #00FFFF;"></stop></linearGradient><polygon style="fill: url(#SVGID_00000031200024338344150310000014551939032476777382_);" points="68.2,63.5 50,33.7 50,14.9  "></polygon></svg> <svg y="431.06500244140625" viewBox="1.4900000095367432 3.009999990463257 101.27000427246094 13.869998931884766" x="236.86499450683593" height="13.869998931884766" width="101.27000427246094" xmlns="http://www.w3.org/2000/svg" style="overflow: visible;"><g fill="#000" style=""><path d="M6.19 11.69L3.17 11.69L3.17 16.70L1.49 16.70L1.49 3.90L6.21 3.90Q8.31 3.90 9.50 4.97Q10.69 6.05 10.69 7.81L10.69 7.81Q10.69 9.68 9.52 10.68Q8.36 11.69 6.19 11.69L6.19 11.69ZM3.17 5.29L3.17 10.31L6.21 10.31Q7.56 10.31 8.28 9.67Q9 9.04 9 7.83L9 7.83Q9 6.69 8.28 6.00Q7.56 5.32 6.30 5.29L6.30 5.29L3.17 5.29ZM17.18 7.14L17.18 8.65Q16.81 8.59 16.38 8.59L16.38 8.59Q14.78 8.59 14.21 9.95L14.21 9.95L14.21 16.70L12.59 16.70L12.59 7.19L14.17 7.19L14.19 8.29Q14.99 7.01 16.46 7.01L16.46 7.01Q16.94 7.01 17.18 7.14L17.18 7.14ZM18.07 11.97L18.07 11.86Q18.07 10.46 18.62 9.34Q19.17 8.23 20.15 7.62Q21.13 7.01 22.39 7.01L22.39 7.01Q24.33 7.01 25.53 8.36Q26.73 9.70 26.73 11.94L26.73 11.94L26.73 12.05Q26.73 13.44 26.20 14.54Q25.66 15.64 24.68 16.26Q23.69 16.88 22.40 16.88L22.40 16.88Q20.47 16.88 19.27 15.53Q18.07 14.19 18.07 11.97L18.07 11.97ZM19.71 12.05L19.71 12.05Q19.71 13.63 20.44 14.59Q21.17 15.55 22.40 15.55L22.40 15.55Q23.64 15.55 24.37 14.58Q25.10 13.61 25.10 11.86L25.10 11.86Q25.10 10.29 24.36 9.32Q23.62 8.35 22.39 8.35L22.39 8.35Q21.18 8.35 20.44 9.31Q19.71 10.27 19.71 12.05ZM28.34 11.97L28.34 11.86Q28.34 10.46 28.89 9.34Q29.43 8.23 30.41 7.62Q31.39 7.01 32.65 7.01L32.65 7.01Q34.59 7.01 35.79 8.36Q36.99 9.70 36.99 11.94L36.99 11.94L36.99 12.05Q36.99 13.44 36.46 14.54Q35.93 15.64 34.94 16.26Q33.95 16.88 32.67 16.88L32.67 16.88Q30.74 16.88 29.54 15.53Q28.34 14.19 28.34 11.97L28.34 11.97ZM29.97 12.05L29.97 12.05Q29.97 13.63 30.70 14.59Q31.44 15.55 32.67 15.55L32.67 15.55Q33.91 15.55 34.64 14.58Q35.37 13.61 35.37 11.86L35.37 11.86Q35.37 10.29 34.62 9.32Q33.88 8.35 32.65 8.35L32.65 8.35Q31.45 8.35 30.71 9.31Q29.97 10.27 29.97 12.05ZM41.46 16.70L39.83 16.70L39.83 8.45L38.33 8.45L38.33 7.19L39.83 7.19L39.83 6.21Q39.83 4.68 40.65 3.85Q41.47 3.01 42.96 3.01L42.96 3.01Q43.52 3.01 44.08 3.16L44.08 3.16L43.99 4.48Q43.58 4.40 43.11 4.40L43.11 4.40Q42.32 4.40 41.89 4.86Q41.46 5.33 41.46 6.19L41.46 6.19L41.46 7.19L43.49 7.19L43.49 8.45L41.46 8.45L41.46 16.70ZM49.31 11.97L49.31 11.86Q49.31 10.46 49.86 9.34Q50.41 8.23 51.39 7.62Q52.37 7.01 53.62 7.01L53.62 7.01Q55.56 7.01 56.76 8.36Q57.96 9.70 57.96 11.94L57.96 11.94L57.96 12.05Q57.96 13.44 57.43 14.54Q56.90 15.64 55.91 16.26Q54.92 16.88 53.64 16.88L53.64 16.88Q51.71 16.88 50.51 15.53Q49.31 14.19 49.31 11.97L49.31 11.97ZM50.94 12.05L50.94 12.05Q50.94 13.63 51.68 14.59Q52.41 15.55 53.64 15.55L53.64 15.55Q54.88 15.55 55.61 14.58Q56.34 13.61 56.34 11.86L56.34 11.86Q56.34 10.29 55.60 9.32Q54.85 8.35 53.62 8.35L53.62 8.35Q52.42 8.35 51.68 9.31Q50.94 10.27 50.94 12.05ZM62.43 16.70L60.80 16.70L60.80 8.45L59.30 8.45L59.30 7.19L60.80 7.19L60.80 6.21Q60.80 4.68 61.62 3.85Q62.44 3.01 63.93 3.01L63.93 3.01Q64.49 3.01 65.05 3.16L65.05 3.16L64.96 4.48Q64.55 4.40 64.08 4.40L64.08 4.40Q63.29 4.40 62.86 4.86Q62.43 5.33 62.43 6.19L62.43 6.19L62.43 7.19L64.46 7.19L64.46 8.45L62.43 8.45L62.43 16.70ZM80.80 3.90L80.80 16.70L79.10 16.70L72.66 6.84L72.66 16.70L70.96 16.70L70.96 3.90L72.66 3.90L79.12 13.81L79.12 3.90L80.80 3.90ZM90.85 9.67L90.85 11.05L85.48 11.05L85.48 16.70L83.79 16.70L83.79 3.90L91.72 3.90L91.72 5.29L85.48 5.29L85.48 9.67L90.85 9.67ZM102.76 3.90L102.76 5.29L98.65 5.29L98.65 16.70L96.97 16.70L96.97 5.29L92.87 5.29L92.87 3.90L102.76 3.90Z" transform="translate(0, 0)"></path></g></svg> <svg y="389.06500244140625" viewBox="2.559999942779541 9.899999618530273 147.55999755859375 25.3799991607666" x="213.72000122070312" height="25.3799991607666" width="147.55999755859375" xmlns="http://www.w3.org/2000/svg" style="overflow: visible;"><g fill="#000" style=""><path d="M8.14 34.74L2.56 34.74L2.56 10.73L8.50 10.73L16.74 22.21L13.57 22.32L22.10 10.73L27.90 10.73L27.90 34.74L22.07 34.74L22.07 15.12L23.22 16.99L15.01 27.90L6.88 16.81L8.14 15.95L8.14 34.74ZM38.34 34.74L32.94 34.74L32.94 16.78L38.30 16.78L38.34 34.74ZM38.38 14.04L32.83 14.04L32.83 9.90L38.38 9.90L38.38 14.04ZM43.13 34.74L43.13 18.07Q43.81 17.71 44.93 17.33Q46.04 16.96 47.38 16.67Q48.71 16.38 50.06 16.20Q51.41 16.02 52.56 16.02L52.56 16.02Q55.01 16.02 56.74 16.65Q58.46 17.28 59.38 18.68Q60.30 20.09 60.30 22.50L60.30 22.50L60.30 34.74L54.94 34.74L54.94 23.58Q54.94 22.90 54.74 22.32Q54.54 21.74 54.14 21.33Q53.75 20.92 53.06 20.68Q52.38 20.45 51.41 20.45L51.41 20.45Q50.58 20.45 49.75 20.65Q48.92 20.84 48.49 21.06L48.49 21.06L48.49 34.74L43.13 34.74ZM72.07 35.28L72.07 35.28Q70.42 35.28 68.96 34.97Q67.50 34.67 66.40 33.97Q65.30 33.26 64.69 32.06Q64.08 30.85 64.08 29.05L64.08 29.05Q64.08 27.36 64.78 26.10Q65.48 24.84 66.92 24.16Q68.36 23.47 70.56 23.47L70.56 23.47Q71.78 23.47 72.94 23.72Q74.09 23.98 75.01 24.41Q75.92 24.84 76.46 25.34L76.46 25.34L76.68 27.94Q75.96 27.50 74.95 27.25Q73.94 27 72.79 27L72.79 27Q71.03 27 70.22 27.52Q69.41 28.04 69.41 29.16L69.41 29.16Q69.41 29.84 69.80 30.38Q70.20 30.92 70.87 31.21Q71.53 31.50 72.25 31.50L72.25 31.50Q74.09 31.50 74.83 31.25Q75.56 31.00 75.56 30.24L75.56 30.24L75.56 23.54Q75.56 21.89 74.50 21.15Q73.44 20.41 71.50 20.41L71.50 20.41Q69.91 20.41 68.31 20.97Q66.71 21.53 65.70 22.32L65.70 22.32L65.70 17.57Q66.64 16.99 68.60 16.49Q70.56 15.98 73.01 15.98L73.01 15.98Q73.87 15.98 74.92 16.13Q75.96 16.27 77.00 16.65Q78.05 17.03 78.93 17.75Q79.81 18.47 80.35 19.58Q80.89 20.70 80.89 22.36L80.89 22.36L80.86 30.96Q80.86 32.51 79.81 33.46Q78.77 34.42 76.81 34.85Q74.84 35.28 72.07 35.28ZM91.19 34.74L85.82 34.74L85.82 10.73L90.79 10.73L103.14 27.36L101.41 30.96L101.41 10.73L106.78 10.73L106.78 34.74L102.38 34.74L89.82 18.32L91.19 15.70L91.19 34.74ZM117.72 34.74L111.89 34.74L111.89 10.73L128.23 10.73L128.23 15.23L117.72 15.23L117.72 20.95L126.79 20.95L126.79 25.52L117.72 25.52L117.72 34.74ZM143.28 34.74L137.45 34.74L137.45 15.23L130.72 15.23L130.72 10.73L150.12 10.73L150.12 15.23L143.28 15.23L143.28 34.74Z" transform="translate(0, 0)"></path></g></svg></svg>