<?xml version="1.0" standalone="yes"?>
<!DOCTYPE svg PUBLIC "-//W3C//DTD SVG 1.1//EN" "http://www.w3.org/Graphics/SVG/1.1/DTD/svg11.dtd">
<svg xmlns="http://www.w3.org/2000/svg" xmlns:xlink="http://www.w3.org/1999/xlink" id="svg" version="1.1" width="100" height="100" viewBox="0, 0, 400,390.3402854006587" style="zoom: 1;"><g id="svgg"><path id="path0" d="M330.250 25.769 C 328.508 25.896,323.221 26.263,318.500 26.584 C 313.779 26.904,306.054 27.429,301.333 27.750 C 296.612 28.071,288.325 28.634,282.917 29.002 C 277.508 29.369,269.221 29.932,264.500 30.252 C 259.779 30.573,252.017 31.100,247.250 31.423 C 228.919 32.666,221.254 33.187,211.917 33.826 C 206.600 34.190,198.275 34.755,193.417 35.083 C 188.558 35.410,180.833 35.934,176.250 36.248 C 171.667 36.561,167.118 36.866,166.142 36.924 L 164.367 37.030 164.274 37.723 C 164.223 38.105,164.136 39.017,164.081 39.750 C 164.025 40.483,163.723 43.933,163.408 47.417 C 162.004 62.944,161.130 72.639,159.741 88.083 C 159.419 91.658,158.899 97.433,158.584 100.917 C 158.270 104.400,157.749 110.175,157.428 113.750 C 157.107 117.325,156.540 123.625,156.167 127.750 C 155.251 137.901,154.454 146.757,153.737 154.750 C 153.408 158.417,152.965 163.292,152.753 165.583 C 152.541 167.875,152.386 169.770,152.409 169.795 C 152.433 169.820,156.607 167.918,161.684 165.569 C 166.762 163.219,172.829 160.414,175.167 159.335 C 177.504 158.256,183.017 155.707,187.417 153.669 C 191.817 151.632,198.417 148.578,202.083 146.881 C 212.090 142.252,212.469 142.076,218.667 139.202 C 221.829 137.736,226.892 135.392,229.917 133.994 C 232.942 132.597,239.017 129.786,243.417 127.749 C 247.817 125.712,255.392 122.207,260.250 119.960 C 265.108 117.713,269.983 115.448,271.083 114.926 C 273.625 113.721,273.171 113.645,276.167 115.777 C 277.587 116.788,279.173 117.908,279.689 118.266 C 281.309 119.388,285.512 122.345,287.250 123.585 C 288.167 124.239,291.317 126.462,294.250 128.525 C 297.183 130.587,303.671 135.156,308.667 138.678 C 313.662 142.199,318.291 145.456,318.952 145.915 C 320.829 147.220,329.753 153.501,333.167 155.922 C 336.065 157.977,353.380 170.173,360.167 174.940 C 361.863 176.131,363.625 177.370,364.083 177.692 C 364.542 178.014,366.979 179.729,369.500 181.503 C 372.021 183.276,375.621 185.813,377.500 187.141 C 379.379 188.469,381.235 189.781,381.625 190.056 C 382.014 190.331,382.362 190.525,382.399 190.486 C 382.457 190.425,381.112 185.562,379.429 179.750 C 379.110 178.650,378.310 175.838,377.652 173.500 C 376.110 168.030,374.585 162.645,372.342 154.750 C 371.353 151.267,370.013 146.542,369.366 144.250 C 368.718 141.958,367.359 137.158,366.346 133.583 C 365.332 130.008,364.230 126.108,363.896 124.917 C 363.561 123.725,363.080 122.037,362.826 121.167 C 362.572 120.296,361.488 116.471,360.416 112.667 C 358.515 105.919,357.927 103.848,356.752 99.750 C 356.437 98.650,355.386 94.938,354.417 91.500 C 352.480 84.630,351.624 81.609,350.755 78.583 C 350.439 77.483,349.345 73.621,348.324 70.000 C 347.303 66.379,346.220 62.554,345.917 61.500 C 345.614 60.446,344.530 56.621,343.508 53.000 C 342.486 49.379,341.393 45.517,341.079 44.417 C 340.765 43.317,340.253 41.517,339.941 40.417 C 339.630 39.317,339.065 37.329,338.687 36.000 C 338.309 34.671,337.487 31.783,336.861 29.583 L 335.723 25.583 334.570 25.561 C 333.936 25.548,331.992 25.642,330.250 25.769 M139.249 49.034 C 137.599 50.711,134.753 53.621,132.925 55.500 C 131.098 57.379,128.356 60.192,126.832 61.750 C 125.308 63.308,119.797 68.971,114.584 74.333 C 109.371 79.696,103.709 85.508,102.001 87.250 C 97.570 91.770,93.136 96.319,86.000 103.667 C 82.573 107.196,78.522 111.358,76.998 112.917 C 70.561 119.499,66.539 123.624,60.503 129.833 C 56.983 133.454,52.820 137.729,51.251 139.333 C 49.682 140.938,46.865 143.825,44.991 145.749 C 39.582 151.303,35.860 155.120,29.079 162.068 C 25.598 165.634,22.759 168.643,22.770 168.755 C 22.787 168.931,34.005 185.768,51.750 212.250 C 54.514 216.375,60.589 225.450,65.249 232.417 C 69.910 239.383,76.960 249.921,80.917 255.833 C 94.555 276.212,102.744 288.450,110.301 299.750 C 114.469 305.983,117.941 311.151,118.016 311.234 C 118.142 311.375,120.948 310.108,135.167 303.493 C 137.871 302.235,142.521 300.081,145.500 298.705 C 148.479 297.330,153.617 294.948,156.917 293.413 C 160.217 291.879,164.342 289.969,166.083 289.170 C 167.825 288.371,172.887 286.026,177.333 283.959 C 181.779 281.892,186.954 279.490,188.833 278.620 C 194.105 276.182,207.194 270.119,216.417 265.844 C 221.000 263.720,225.088 261.826,225.500 261.636 C 228.006 260.478,236.486 256.527,237.714 255.944 L 239.177 255.250 233.725 251.417 C 230.726 249.308,226.617 246.417,224.594 244.990 C 209.164 234.112,201.356 228.611,200.000 227.665 C 198.427 226.567,197.118 225.646,178.583 212.583 C 173.267 208.836,166.254 203.895,163.000 201.604 C 149.440 192.057,145.537 189.308,138.125 184.091 C 131.486 179.417,130.333 178.546,130.333 178.200 C 130.333 177.977,130.594 175.010,130.913 171.606 C 131.673 163.481,132.442 155.125,134.594 131.583 C 134.913 128.100,135.432 122.438,135.748 119.000 C 136.063 115.563,136.589 109.825,136.915 106.250 C 137.241 102.675,137.807 96.487,138.174 92.500 C 138.540 88.513,139.098 82.438,139.414 79.000 C 139.730 75.563,140.255 69.825,140.581 66.250 C 140.907 62.675,141.439 56.917,141.764 53.454 C 142.088 49.991,142.330 46.894,142.301 46.571 L 142.250 45.984 139.249 49.034 M270.502 136.458 C 270.503 136.619,270.313 138.850,270.079 141.417 C 269.846 143.983,269.397 148.933,269.083 152.417 C 268.768 155.900,268.210 162.050,267.844 166.083 C 267.478 170.117,266.912 176.379,266.587 180.000 C 265.405 193.154,264.814 199.707,264.253 205.917 C 263.938 209.400,263.411 215.250,263.081 218.917 C 262.751 222.583,262.217 228.433,261.895 231.917 C 261.573 235.400,261.246 239.075,261.168 240.083 C 261.090 241.092,260.798 244.392,260.519 247.417 C 259.971 253.351,258.920 264.982,258.712 267.415 C 258.594 268.790,258.549 268.929,258.167 269.110 C 257.938 269.218,252.537 271.720,246.167 274.669 C 239.796 277.619,231.996 281.235,228.833 282.705 C 225.671 284.174,222.221 285.769,221.167 286.249 C 220.112 286.729,216.625 288.341,213.417 289.832 C 210.208 291.323,204.546 293.948,200.833 295.666 C 179.865 305.370,176.129 307.100,174.917 307.668 C 174.183 308.012,171.108 309.434,168.083 310.828 C 165.058 312.222,160.521 314.324,158.000 315.499 C 155.479 316.673,150.829 318.829,147.667 320.289 C 137.442 325.010,137.654 324.906,137.964 325.041 C 138.121 325.109,140.462 325.723,143.167 326.404 C 145.871 327.085,151.946 328.618,156.667 329.811 C 161.387 331.005,169.000 332.927,173.583 334.084 C 178.167 335.241,185.029 336.975,188.833 337.938 C 195.290 339.571,199.195 340.557,221.375 346.156 C 226.073 347.342,233.217 349.147,237.250 350.167 C 241.283 351.187,248.258 352.949,252.750 354.083 C 257.242 355.216,264.329 357.007,268.500 358.062 C 272.671 359.116,279.796 360.917,284.333 362.063 C 288.871 363.209,295.118 364.788,298.216 365.573 C 301.314 366.358,303.887 367.000,303.934 367.000 C 304.009 367.000,307.470 360.024,311.500 351.750 C 312.304 350.100,314.292 346.050,315.918 342.750 C 317.544 339.450,319.381 335.700,320.000 334.417 C 320.620 333.133,322.494 329.308,324.166 325.917 C 325.837 322.525,327.900 318.325,328.749 316.583 C 329.598 314.842,331.399 311.167,332.750 308.417 C 334.102 305.667,336.052 301.692,337.084 299.583 C 338.915 295.839,341.024 291.540,345.833 281.750 C 347.138 279.092,348.939 275.417,349.834 273.583 C 350.729 271.750,352.752 267.625,354.329 264.417 C 355.906 261.208,358.515 255.883,360.126 252.583 C 361.737 249.283,363.905 244.875,364.944 242.787 C 365.983 240.700,366.833 238.964,366.833 238.930 C 366.833 238.896,368.746 234.990,371.083 230.248 C 373.421 225.507,375.333 221.605,375.333 221.577 C 375.333 221.549,376.271 219.631,377.417 217.313 C 378.563 214.996,379.500 213.020,379.500 212.922 C 379.500 212.824,378.544 212.073,377.375 211.254 C 374.903 209.522,370.646 206.525,361.583 200.139 C 358.008 197.620,352.908 194.033,350.250 192.168 C 345.826 189.064,337.763 183.389,326.333 175.333 C 323.904 173.620,318.842 170.056,315.083 167.412 C 311.325 164.768,305.587 160.731,302.333 158.439 C 299.079 156.148,295.704 153.777,294.833 153.170 C 293.611 152.318,279.190 142.161,274.833 139.083 C 270.155 135.778,270.499 135.987,270.502 136.458" stroke="none" fill="#0476ad" fill-rule="evenodd" visibility="visible"></path></g></svg>